<?xml version="1.0" standalone="no"?><!DOCTYPE svg PUBLIC "-//W3C//DTD SVG 1.1//EN" "http://www.w3.org/Graphics/SVG/1.1/DTD/svg11.dtd"><svg t="1600687853851" class="icon" viewBox="0 0 5939 1024" version="1.1" xmlns="http://www.w3.org/2000/svg" p-id="4662" xmlns:xlink="http://www.w3.org/1999/xlink" width="417.5859375" height="72"><defs><style type="text/css"></style></defs><path d="M411.7504 307.2H563.2l85.3504 147.2L870.4 68.2496h153.6l-375.4496 650.7008z" fill="#FF6633" p-id="4663"></path><path d="M0 68.2496l512 887.5008 76.8-132.3008-362.6496-627.2H499.2l-72.5504-128z" fill="#00BFD8" p-id="4664"></path><path d="M1921.1776 229.5808V175.616H1259.3152v53.9648h661.8624zM1301.4016 464.4864V429.568c0-17.4592 13.5168-30.976 30.976-30.976h515.7888c17.4592 0 31.744 13.5168 31.744 30.9248v34.9696h54.016V429.568c0-42.9056-34.1504-79.36-76.2368-84.1728V263.68H1803.776v80.9472h-189.696V263.68h-53.9648v80.9472h-183.296V263.68h-53.9648v81.7152a85.6064 85.6064 0 0 0-75.4176 84.1216v34.9696h53.9648z m616.6528 427.7248l16.64-51.5584-222.208-69.8368c89.7024-47.616 162.6624-104.7552 205.5168-168.2944H1382.4c5.5808-16.64 10.3424-34.0992 15.872-52.3776h526.9504V496.2304H1412.5056l10.2912-38.912-53.1456-12.6976-13.5168 51.6096h-107.1104v53.9136h92.0576a1699.7376 1699.7376 0 0 1-127.744 314.3168l48.384 24.576c30.9248-58.7264 58.7264-116.6848 82.5344-179.3536l222.976 71.424a1735.68 1735.68 0 0 1-227.7376 58.7264l10.2912 52.3776a1347.9424 1347.9424 0 0 0 291.2768-88.064l276.992 88.064z m-269.824-142.0288l-285.696-90.5216 1.536-2.3552h442.88c-38.912 34.1504-93.696 65.0752-158.72 92.8768z m409.4976 140.4416c71.424-164.2496 100.7616-338.8416 112.64-584.0896h108.7488c25.3952 0 46.0288 19.8656 46.0288 45.2096v438.0672a46.08 46.08 0 0 1-46.0288 46.08h-89.7024v53.9136h89.7024c54.784 0 99.9936-45.2096 99.9936-99.9936V351.744c0-54.7328-45.2096-99.9424-99.9936-99.9424h-106.3424l2.4064-81.7664-54.016-0.8192-2.3552 82.5856h-103.936v54.7328h101.5296c-11.8784 236.4928-40.448 404.736-108.6976 562.688l50.0224 21.4016z m584.8576 0c46.848 0 85.7088-38.0928 85.7088-84.9408V292.2496c0-46.848-38.912-85.7088-85.7088-85.7088h-132.5056c-46.08 0-84.9408 38.912-84.9408 85.7088v513.4336c0 46.848 38.912 84.9408 84.9408 84.9408h132.5056z m0-53.9648h-132.5056a30.5152 30.5152 0 0 1-30.976-30.976V292.2496c0-17.4592 13.5168-31.744 30.976-31.744h132.5056c17.4592 0 30.976 14.2848 30.976 31.744v513.4336a30.5152 30.5152 0 0 1-30.976 30.976z m387.2768-99.9936v-53.9648h-142.0288l141.2096-290.4576-48.384-23.808-46.848 96.0512h-50.7904l116.6848-265.0624-50.0224-22.2208-149.9648 341.248h108.6976l-105.5232 218.2144h226.9696z m337.2544 69.0176V467.6096h153.1904V413.696h-153.1904V177.152h-54.7328v236.544h-153.1392v53.9136h153.1392v338.1248h54.784z m156.3648 88.8832V840.704h-343.6544a46.08 46.08 0 0 1-45.9776-46.08V178.0224h-53.9648V794.624c0 54.7328 45.2096 99.9936 99.9424 99.9936h343.6544zM3455.232 390.656l58.7264-177.7664-50.7904-17.4592-59.4944 177.7664 51.5584 17.4592z m-230.912 0l51.5584-17.4592-59.5456-177.7664-50.7904 17.4592 58.7776 177.7664z m236.4928 409.4976l52.3776-8.704-53.1968-303.9744-52.3776 8.704 53.1456 303.9744z m-237.312 0.768c22.2208-69.8368 42.0864-150.784 42.8544-307.0976h-54.784c0 150.016-18.2272 225.3824-38.8608 291.2768l50.7904 15.872z m-177.7664 77.0048v-54.784h-245.248v54.784h245.248z m1262.592-358.7072V443.8016c0-54.7328-43.6224-99.9424-99.1744-99.9424h-86.528V277.9136h173.056V224h-173.056v-56.32h-53.9136v56.32h-173.824v53.9648h173.7728v65.8432h-182.4768V397.824h322.9696c24.576 0 45.2608 20.6336 45.2608 46.08v75.3664h53.9136z m-487.2704 216.6784v-53.9648h-140.4416L3819.52 391.3728l-48.4352-22.9888-45.2096 95.232h-50.0224l114.2784-265.0624-50.0224-21.4016-147.6096 340.4288h107.1616l-103.936 218.2656h225.3312z m78.592 154.7264c112.6912-25.3952 196.8128-78.5408 231.7312-177.7664h4.7616l138.8544 176.9984 42.0864-34.1504-112.6912-142.848h99.2256v-53.9648h-158.72c2.3552-18.2784 3.9424-38.0928 3.9424-58.7264V449.3824h-53.9648v150.784c0 21.4016-2.3552 41.2672-5.5296 58.7264H3886.08v53.9648h185.7024c-33.28 68.2496-99.1744 106.3424-184.1152 125.3888l11.9296 52.3776z m154.7264-374.5792V462.08h-168.192v53.9648h168.192z m0 96V558.08h-168.192v53.9648h168.192z m-219.0336 265.8816v-53.9648h-241.2544v53.9648h241.2544z m721.408 13.5168c48.4352 0 86.528-38.144 86.528-84.9408v-96.8192l126.1568-19.0464-7.168-53.9648-96.768 14.2848c25.344-40.448 46.7968-90.4704 66.6112-152.3712H4510.72c8.704-16.64 15.872-34.9184 21.4528-52.3776h230.0928V392.2432h-45.9776V331.1616h-54.784V392.192h-59.5456V292.2496h144.4864V238.2848h-144.4864V166.8608H4548.096v71.424h-143.6672v53.9648h143.6672v99.9936h-159.5392v53.9648h87.296c-17.4592 46.0288-50.0224 90.4704-91.2896 127.744l34.9184 41.2672a424.96 424.96 0 0 0 57.1904-62.6688h179.3024a465.2544 465.2544 0 0 1-65.8432 110.336l-193.6384 28.5696 7.168 53.9136 184.8832-27.7504v88.8832a31.1808 31.1808 0 0 1-31.744 30.9248h-69.8368v53.9648h69.8368z m225.3824 1.536a859.3408 859.3408 0 0 0 162.7136-216.6272l120.6272 214.272 46.7968-26.9824-138.0864-245.248c38.0928-84.8896 70.656-186.4704 96.0512-311.04h35.6864V253.3888h-272.9984L4844.032 184.32l-54.784-8.704-20.6336 131.7376h247.6544c-20.6848 98.3552-46.08 180.9408-75.4176 251.5456l-123.0336-219.0336-46.7968 26.1632 142.08 253.952a848.384 848.384 0 0 1-169.0624 234.9568l38.0928 38.0928zM5739.2128 445.44c54.784 0 99.9936-45.2608 99.9936-99.9936v-30.208h-53.9648v30.208a45.568 45.568 0 0 1-46.0288 46.0288h-409.4976l31.744-111.104h533.2992V226.3552h-325.376V166.0928h-53.9648V226.304h-325.376v53.9648h115.0976L5258.24 445.44h480.9216z m-443.5968 447.5904V812.032h492.8v80.9984h53.9648v-308.736a99.4304 99.4304 0 0 0-99.9936-99.2256h-400.7936c-54.7328 0-99.9936 43.6736-99.9936 99.2256v308.736h54.016z m492.8-269.056h-492.8512v-39.68c0-24.576 20.6336-45.2608 46.08-45.2608h400.7424c25.3952 0 46.0288 20.6336 46.0288 45.2608v39.68z m0 134.144h-492.8512V677.888h492.8512v80.1792z" fill="#242424" p-id="4665"></path></svg>